<svg width="212" height="244" viewBox="0 0 212 244" fill="none" xmlns="http://www.w3.org/2000/svg">
<g opacity="0.8">
<path fill-rule="evenodd" clip-rule="evenodd" d="M69.7043 1.53906C67.0744 4.66449 68.5517 21.2146 71.4331 21.2146C74.3146 21.2146 76.0434 5.73426 73.403 2.03199C71.9256 -0.107564 71.1817 -0.191466 69.7043 1.53906Z" fill="white"/>
<path fill-rule="evenodd" clip-rule="evenodd" d="M67.0638 39.4847C66.739 39.7364 66.4876 43.3548 66.4876 47.55C66.4876 67.1416 57.1937 81.8773 39.507 90.2782C36.7933 91.5997 34.2471 93.2463 33.9956 93.8966C33.1784 96.204 35.232 97.3577 40.0833 97.2738C47.816 97.1059 53.2435 99.2455 57.6023 104.353C59.8237 106.818 62.1288 115.051 63.1975 124.113C64.3501 133.741 65.2512 136.625 67.3887 137.286C69.2852 137.946 71.9989 136.468 72.5752 134.653C72.7429 133.835 73.5602 129.965 74.2203 126.095C75.7815 117.946 78.0866 110.698 80.4755 106.828C82.5292 103.451 87.0556 101.228 95.2808 99.3399C101.777 97.7772 104.323 96.3718 104.323 94.0749C104.323 91.778 101.777 90.1209 95.9304 88.726C89.2665 86.9955 83.5141 83.6183 81.2928 79.9161C78.6629 75.6369 76.5254 67.4878 74.304 53.4862C73.2353 46.3229 72.0827 40.1455 71.8418 39.7364C71.2655 38.8345 67.8916 38.6667 67.0743 39.4847H67.0638Z" fill="white"/>
<path fill-rule="evenodd" clip-rule="evenodd" d="M123.403 94.0749C120.113 94.8195 119.621 95.3125 120.197 96.7913C120.773 98.354 128.171 100.085 134.175 100.085C138.041 100.085 139.277 99.7594 140.755 98.2701L142.567 96.4557L140.598 94.8091C139.036 93.5715 137.475 93.2463 132.372 93.3302C128.915 93.4141 124.891 93.7393 123.403 94.0749Z" fill="white"/>
<path fill-rule="evenodd" clip-rule="evenodd" d="M4.22801 97.1164C0.686484 97.5255 -0.539447 99.7489 1.26275 102.308C2.49914 104.039 2.99158 104.122 7.59137 103.703C16.4766 102.885 24.5341 98.9309 19.4314 97.8611C16.309 97.2003 7.01512 96.7913 4.21752 97.1164H4.22801Z" fill="white"/>
<path fill-rule="evenodd" clip-rule="evenodd" d="M164.372 109.713C163.219 110.866 162.727 112.429 162.727 115.229C162.727 120.421 164.12 125.35 165.608 125.35C167.096 125.35 169.307 118.103 169.307 113.331C169.307 108.8 167.002 107.07 164.372 109.713Z" fill="white"/>
<path fill-rule="evenodd" clip-rule="evenodd" d="M161.239 137.044C160.663 137.621 160.254 139.593 160.254 141.407C160.254 146.096 158.861 153.594 156.796 159.845C154.743 166.348 150.132 171.204 144.212 173.427C135.579 176.637 135.495 179.762 143.888 181.409C146.601 181.902 150.059 183.223 151.453 184.125C154.91 186.432 155.979 191.037 156.063 203.801C156.147 213.355 156.147 213.513 158.201 214.425C161.899 216.072 163.303 213.607 164.204 203.885C164.697 199.27 165.598 194.414 166.342 193.019C168.238 189.317 172.754 185.94 178.842 183.8C188.052 180.591 188.052 176.144 178.842 173.102C175.96 172.2 173.006 170.711 172.262 169.977C169.799 167.176 168.479 161.251 167.735 149.557C167.327 143.138 166.75 137.453 166.415 136.96C165.755 135.723 162.465 135.807 161.229 137.044H161.239Z" fill="white"/>
<path fill-rule="evenodd" clip-rule="evenodd" d="M67.5668 155.157C66.2466 156.72 64.853 165.205 64.853 171.623C64.853 176.154 65.1779 177.549 66.4981 178.871C68.4679 180.842 69.2956 180.926 71.1083 179.122C72.2609 177.885 72.4286 176.658 71.9256 169.819C71.1083 157.716 69.5366 152.692 67.5668 155.168V155.157Z" fill="white"/>
<path fill-rule="evenodd" clip-rule="evenodd" d="M111.396 176.647C109.091 178.378 110.076 180.842 113.366 181.671C117.557 182.657 125.866 180.853 125.541 179.038C124.965 176.154 114.434 174.424 111.396 176.647Z" fill="white"/>
<path fill-rule="evenodd" clip-rule="evenodd" d="M199.075 177.381C194.056 178.451 194.632 180.507 200.395 182.069C206.074 183.548 210.674 182.646 211.082 179.93C211.575 176.721 206.64 175.651 199.075 177.381Z" fill="white"/>
<path fill-rule="evenodd" clip-rule="evenodd" d="M155.895 228.836C153.098 236.083 153.433 243.246 156.713 243.739C159.51 244.148 161.48 237.236 160.411 230.325C159.667 225.06 157.697 224.399 155.885 228.846L155.895 228.836Z" fill="white"/>
</g>
</svg>
